<svg xmlns="http://www.w3.org/2000/svg" xmlns:xlink="http://www.w3.org/1999/xlink" width="500" zoomAndPan="magnify" viewBox="0 0 375 374.999991" height="500" preserveAspectRatio="xMidYMid meet" version="1.0"><defs><g/></defs><g fill="#ffffff" fill-opacity="1"><g transform="translate(0.000027375, 296.474157)"><g><path d="M 59.734375 0 L 4.6875 -15.015625 L 14.390625 -51.296875 L 14.390625 -158.25 L 40.96875 -158.25 L 8.4375 -161.375 L 12.828125 -208.296875 L 138.859375 -196.40625 L 134.484375 -150.125 L 134.484375 -116.96875 L 115.09375 -104.453125 L 134.484375 -99.140625 L 134.484375 -49.109375 L 146.6875 -45.65625 L 134.484375 0 L 87.25 -12.828125 L 79.4375 -15.015625 L 87.25 -44.40625 L 87.25 -73.5 L 100.703125 -73.5 L 61.609375 -84.125 L 61.609375 -48.46875 L 71.9375 -45.65625 Z M 87.25 -152 L 106.328125 -152 L 61.609375 -156.375 L 61.609375 -119.15625 L 87.25 -112.28125 Z M 87.25 -152 "/></g></g></g><g fill="#ffffff" fill-opacity="1"><g transform="translate(151.374415, 296.474157)"><g><path d="M 65.984375 -0.3125 L 10.953125 -15.328125 L 20.640625 -51.609375 L 20.640625 -147 L 4.6875 -151.375 L 16.890625 -197.03125 L 67.859375 -182.953125 L 67.859375 -164.1875 L 76.9375 -197.03125 L 142.296875 -179.203125 L 147.3125 -197.03125 L 218.921875 -177.328125 L 208.609375 -139.796875 L 208.609375 -48.78125 L 218.921875 -45.96875 L 206.734375 -0.3125 L 157.625 -13.765625 L 161.375 -27.203125 L 161.375 -144.171875 L 141.046875 -149.8125 L 138.234375 -139.796875 L 138.234375 -48.78125 L 148.5625 -45.96875 L 136.359375 -0.3125 L 87.25 -13.765625 L 91.015625 -27.203125 L 91.015625 -144.171875 L 67.859375 -150.4375 L 67.859375 -48.78125 L 78.1875 -45.96875 Z M 65.984375 -0.3125 "/></g></g></g></svg>
